<mxfile host="app.diagrams.net" modified="2024-02-14T19:54:34.416Z" agent="Mozilla/5.0 (Windows NT 10.0; Win64; x64) AppleWebKit/537.36 (KHTML, like Gecko) Chrome/121.0.0.0 Safari/537.36" etag="mWZFQNqKi3ZRaLOdiNAa" version="23.0.2" type="github">
  <diagram name="Page-1" id="e7XoK9rDj5rA0LW-cNcf">
    <mxGraphModel dx="3423" dy="1826" grid="1" gridSize="10" guides="1" tooltips="1" connect="1" arrows="1" fold="1" page="1" pageScale="1" pageWidth="850" pageHeight="1100" math="0" shadow="0">
      <root>
        <mxCell id="0" />
        <mxCell id="1" parent="0" />
        <mxCell id="O0ug9R4ipBQisBpClcmb-1" value="AZ1 us-east-1a" style="fillColor=none;strokeColor=#147EBA;dashed=1;verticalAlign=top;fontStyle=0;fontColor=#147EBA;whiteSpace=wrap;html=1;align=left;rounded=0;" parent="1" vertex="1">
          <mxGeometry x="260" y="30" width="540" height="153" as="geometry" />
        </mxCell>
        <mxCell id="O0ug9R4ipBQisBpClcmb-2" value="AZ1 us-east-1b" style="fillColor=none;strokeColor=#0000FF;dashed=1;verticalAlign=top;fontStyle=0;fontColor=#147EBA;whiteSpace=wrap;html=1;align=left;rounded=0;movable=1;resizable=1;rotatable=1;deletable=1;editable=1;locked=0;connectable=1;" parent="1" vertex="1">
          <mxGeometry x="260" y="220" width="540" height="100" as="geometry" />
        </mxCell>
        <mxCell id="O0ug9R4ipBQisBpClcmb-3" style="edgeStyle=orthogonalEdgeStyle;rounded=0;orthogonalLoop=1;jettySize=auto;html=1;exitX=0.5;exitY=1;exitDx=0;exitDy=0;movable=1;resizable=1;rotatable=1;deletable=1;editable=1;locked=0;connectable=1;" parent="1" source="O0ug9R4ipBQisBpClcmb-2" target="O0ug9R4ipBQisBpClcmb-2" edge="1">
          <mxGeometry relative="1" as="geometry" />
        </mxCell>
        <mxCell id="O0ug9R4ipBQisBpClcmb-4" value="&lt;b&gt;&lt;font color=&quot;#000000&quot;&gt;CruddurVPC&lt;/font&gt;&lt;/b&gt;" style="points=[[0,0],[0.25,0],[0.5,0],[0.75,0],[1,0],[1,0.25],[1,0.5],[1,0.75],[1,1],[0.75,1],[0.5,1],[0.25,1],[0,1],[0,0.75],[0,0.5],[0,0.25]];outlineConnect=0;gradientColor=none;html=1;whiteSpace=wrap;fontSize=12;fontStyle=0;container=0;pointerEvents=0;collapsible=0;recursiveResize=0;shape=mxgraph.aws4.group;grIcon=mxgraph.aws4.group_vpc;strokeColor=#248814;fillColor=none;verticalAlign=top;align=left;spacingLeft=30;fontColor=#AAB7B8;dashed=0;rounded=0;" parent="1" vertex="1">
          <mxGeometry x="-870" y="14.25" width="1869" height="515.75" as="geometry" />
        </mxCell>
        <mxCell id="O0ug9R4ipBQisBpClcmb-5" style="edgeStyle=orthogonalEdgeStyle;rounded=0;orthogonalLoop=1;jettySize=auto;html=1;startArrow=classic;startFill=1;" parent="1" source="O0ug9R4ipBQisBpClcmb-6" target="O0ug9R4ipBQisBpClcmb-8" edge="1">
          <mxGeometry relative="1" as="geometry" />
        </mxCell>
        <mxCell id="O0ug9R4ipBQisBpClcmb-6" value="" style="outlineConnect=0;fontColor=#232F3E;gradientColor=none;fillColor=#4D27AA;strokeColor=none;dashed=0;verticalLabelPosition=bottom;verticalAlign=top;align=center;html=1;fontSize=12;fontStyle=0;aspect=fixed;pointerEvents=1;shape=mxgraph.aws4.internet_gateway;rounded=0;" parent="1" vertex="1">
          <mxGeometry x="340" y="-110" width="50" height="50" as="geometry" />
        </mxCell>
        <mxCell id="O0ug9R4ipBQisBpClcmb-7" style="edgeStyle=orthogonalEdgeStyle;rounded=0;orthogonalLoop=1;jettySize=auto;html=1;startArrow=classic;startFill=1;endArrow=none;endFill=0;" parent="1" source="O0ug9R4ipBQisBpClcmb-8" edge="1">
          <mxGeometry relative="1" as="geometry">
            <mxPoint x="610" y="-85" as="targetPoint" />
          </mxGeometry>
        </mxCell>
        <mxCell id="O0ug9R4ipBQisBpClcmb-8" value="" style="outlineConnect=0;fontColor=#232F3E;gradientColor=none;fillColor=#4D27AA;strokeColor=none;dashed=0;verticalLabelPosition=bottom;verticalAlign=top;align=center;html=1;fontSize=12;fontStyle=0;aspect=fixed;pointerEvents=1;shape=mxgraph.aws4.route_table;rounded=0;" parent="1" vertex="1">
          <mxGeometry x="490" y="-110" width="51.32" height="50" as="geometry" />
        </mxCell>
        <mxCell id="O0ug9R4ipBQisBpClcmb-9" value="Local(10.0.0.0/32)" style="text;strokeColor=none;align=center;fillColor=none;html=1;verticalAlign=middle;whiteSpace=wrap;rounded=0;" parent="1" vertex="1">
          <mxGeometry x="610" y="-100" width="100" height="30" as="geometry" />
        </mxCell>
        <mxCell id="O0ug9R4ipBQisBpClcmb-10" value="CruddurIGW" style="text;strokeColor=none;align=center;fillColor=none;html=1;verticalAlign=middle;whiteSpace=wrap;rounded=0;" parent="1" vertex="1">
          <mxGeometry x="315" y="-60" width="100" height="30" as="geometry" />
        </mxCell>
        <mxCell id="O0ug9R4ipBQisBpClcmb-11" value="0.0.0.0/32" style="text;strokeColor=none;align=center;fillColor=none;html=1;verticalAlign=middle;whiteSpace=wrap;rounded=0;" parent="1" vertex="1">
          <mxGeometry x="400" y="-120" width="100" height="30" as="geometry" />
        </mxCell>
        <mxCell id="O0ug9R4ipBQisBpClcmb-12" value="CruddurRT" style="text;strokeColor=none;align=center;fillColor=none;html=1;verticalAlign=middle;whiteSpace=wrap;rounded=0;" parent="1" vertex="1">
          <mxGeometry x="465.65999999999997" y="-60" width="100" height="30" as="geometry" />
        </mxCell>
        <mxCell id="j9ZPjtee0tB4fhm8hNUY-16" style="edgeStyle=none;rounded=0;orthogonalLoop=1;jettySize=auto;html=1;endArrow=none;endFill=0;startArrow=classic;startFill=1;" parent="1" source="O0ug9R4ipBQisBpClcmb-13" edge="1">
          <mxGeometry relative="1" as="geometry">
            <mxPoint x="-633.1199999999999" y="550" as="targetPoint" />
          </mxGeometry>
        </mxCell>
        <mxCell id="O0ug9R4ipBQisBpClcmb-13" value="" style="rounded=0;whiteSpace=wrap;html=1;rotation=90;" parent="1" vertex="1">
          <mxGeometry x="-768.12" y="72.13" width="270" height="175" as="geometry" />
        </mxCell>
        <mxCell id="O0ug9R4ipBQisBpClcmb-14" style="edgeStyle=orthogonalEdgeStyle;rounded=0;orthogonalLoop=1;jettySize=auto;html=1;entryX=0.5;entryY=1;entryDx=0;entryDy=0;entryPerimeter=0;endArrow=none;endFill=0;startArrow=classic;startFill=1;" parent="1" source="O0ug9R4ipBQisBpClcmb-16" target="O0ug9R4ipBQisBpClcmb-22" edge="1">
          <mxGeometry relative="1" as="geometry">
            <mxPoint x="-110" y="190" as="targetPoint" />
            <Array as="points">
              <mxPoint x="-511" y="90" />
            </Array>
          </mxGeometry>
        </mxCell>
        <mxCell id="O0ug9R4ipBQisBpClcmb-15" style="edgeStyle=orthogonalEdgeStyle;rounded=0;orthogonalLoop=1;jettySize=auto;html=1;" parent="1" source="O0ug9R4ipBQisBpClcmb-16" edge="1">
          <mxGeometry relative="1" as="geometry">
            <mxPoint x="-410" y="103" as="targetPoint" />
          </mxGeometry>
        </mxCell>
        <mxCell id="O0ug9R4ipBQisBpClcmb-16" value="" style="sketch=0;outlineConnect=0;fontColor=#232F3E;gradientColor=none;fillColor=#4D27AA;strokeColor=none;dashed=0;verticalLabelPosition=bottom;verticalAlign=top;align=center;html=1;fontSize=12;fontStyle=0;aspect=fixed;pointerEvents=1;shape=mxgraph.aws4.application_load_balancer;" parent="1" vertex="1">
          <mxGeometry x="-662.12" y="74" width="58" height="58" as="geometry" />
        </mxCell>
        <mxCell id="O0ug9R4ipBQisBpClcmb-17" value="&lt;font color=&quot;#cc0000&quot;&gt;ALB SECURITY GROUP&lt;/font&gt;" style="text;strokeColor=none;align=center;fillColor=none;html=1;verticalAlign=middle;whiteSpace=wrap;rounded=0;" parent="1" vertex="1">
          <mxGeometry x="-713.12" y="39.75" width="150" height="30" as="geometry" />
        </mxCell>
        <mxCell id="O0ug9R4ipBQisBpClcmb-18" value="ALB" style="text;strokeColor=none;align=center;fillColor=none;html=1;verticalAlign=middle;whiteSpace=wrap;rounded=0;" parent="1" vertex="1">
          <mxGeometry x="-683.12" y="132" width="100" height="30" as="geometry" />
        </mxCell>
        <mxCell id="O0ug9R4ipBQisBpClcmb-19" value="Ingress" style="text;strokeColor=none;align=left;fillColor=none;html=1;verticalAlign=middle;whiteSpace=wrap;rounded=0;" parent="1" vertex="1">
          <mxGeometry x="-713.12" y="162" width="100" height="30" as="geometry" />
        </mxCell>
        <mxCell id="O0ug9R4ipBQisBpClcmb-20" value="(HTTP) TCP 80 0.0.0.0&lt;br&gt;(HTTPS) TCP 443 0.0.0.0" style="text;whiteSpace=wrap;html=1;" parent="1" vertex="1">
          <mxGeometry x="-713.12" y="192" width="150" height="40" as="geometry" />
        </mxCell>
        <mxCell id="O0ug9R4ipBQisBpClcmb-21" value="Outgress&lt;br&gt;TCP ALL 0.0.0.0" style="text;whiteSpace=wrap;html=1;" parent="1" vertex="1">
          <mxGeometry x="-713.12" y="245" width="130" height="40" as="geometry" />
        </mxCell>
        <mxCell id="O0ug9R4ipBQisBpClcmb-22" value="" style="sketch=0;points=[[0,0,0],[0.25,0,0],[0.5,0,0],[0.75,0,0],[1,0,0],[0,1,0],[0.25,1,0],[0.5,1,0],[0.75,1,0],[1,1,0],[0,0.25,0],[0,0.5,0],[0,0.75,0],[1,0.25,0],[1,0.5,0],[1,0.75,0]];outlineConnect=0;fontColor=#232F3E;gradientColor=#F54749;gradientDirection=north;fillColor=#C7131F;strokeColor=#ffffff;dashed=0;verticalLabelPosition=bottom;verticalAlign=top;align=center;html=1;fontSize=12;fontStyle=0;aspect=fixed;shape=mxgraph.aws4.resourceIcon;resIcon=mxgraph.aws4.certificate_manager_3;" parent="1" vertex="1">
          <mxGeometry x="-534.25" y="-38" width="38" height="38" as="geometry" />
        </mxCell>
        <mxCell id="O0ug9R4ipBQisBpClcmb-23" value="&lt;b&gt;attached to ...&lt;/b&gt;" style="text;whiteSpace=wrap;html=1;" parent="1" vertex="1">
          <mxGeometry x="-510" y="20" width="90.62" height="40" as="geometry" />
        </mxCell>
        <mxCell id="O0ug9R4ipBQisBpClcmb-24" value="&lt;b&gt;ACM Certificate&lt;br&gt;&amp;nbsp;&lt;/b&gt;*.rietta.online&lt;br&gt;rietta.online" style="text;whiteSpace=wrap;html=1;" parent="1" vertex="1">
          <mxGeometry x="-490" y="-40" width="130" height="60" as="geometry" />
        </mxCell>
        <mxCell id="O0ug9R4ipBQisBpClcmb-25" value="" style="rounded=0;whiteSpace=wrap;html=1;rotation=-180;" parent="1" vertex="1">
          <mxGeometry x="-405.63" y="74.00000000000001" width="154.37" height="51.51" as="geometry" />
        </mxCell>
        <mxCell id="O0ug9R4ipBQisBpClcmb-26" style="edgeStyle=orthogonalEdgeStyle;rounded=0;orthogonalLoop=1;jettySize=auto;html=1;endArrow=none;endFill=0;" parent="1" edge="1">
          <mxGeometry relative="1" as="geometry">
            <mxPoint x="-220" y="164" as="targetPoint" />
            <mxPoint x="-250" y="104" as="sourcePoint" />
            <Array as="points">
              <mxPoint x="-250" y="105" />
              <mxPoint x="-219" y="105" />
              <mxPoint x="-219" y="164" />
            </Array>
          </mxGeometry>
        </mxCell>
        <mxCell id="O0ug9R4ipBQisBpClcmb-27" value="HTTPListener&lt;br&gt;Port&amp;nbsp; 80" style="text;whiteSpace=wrap;html=1;" parent="1" vertex="1">
          <mxGeometry x="-393.45" y="79.75000000000001" width="130" height="40" as="geometry" />
        </mxCell>
        <mxCell id="O0ug9R4ipBQisBpClcmb-28" style="edgeStyle=orthogonalEdgeStyle;rounded=0;orthogonalLoop=1;jettySize=auto;html=1;exitX=1;exitY=0.5;exitDx=0;exitDy=0;endArrow=none;endFill=0;startArrow=classic;startFill=1;" parent="1" source="O0ug9R4ipBQisBpClcmb-31" edge="1">
          <mxGeometry relative="1" as="geometry">
            <mxPoint x="-450" y="100" as="targetPoint" />
          </mxGeometry>
        </mxCell>
        <mxCell id="O0ug9R4ipBQisBpClcmb-29" style="edgeStyle=orthogonalEdgeStyle;rounded=0;orthogonalLoop=1;jettySize=auto;html=1;endArrow=none;endFill=0;startArrow=classic;startFill=1;" parent="1" source="O0ug9R4ipBQisBpClcmb-31" edge="1">
          <mxGeometry relative="1" as="geometry">
            <mxPoint x="-220" y="166.24500000000012" as="targetPoint" />
          </mxGeometry>
        </mxCell>
        <mxCell id="O0ug9R4ipBQisBpClcmb-30" style="edgeStyle=none;rounded=0;orthogonalLoop=1;jettySize=auto;html=1;entryX=1;entryY=0.5;entryDx=0;entryDy=0;exitX=0.297;exitY=-0.019;exitDx=0;exitDy=0;exitPerimeter=0;" parent="1" source="O0ug9R4ipBQisBpClcmb-31" target="O0ug9R4ipBQisBpClcmb-34" edge="1">
          <mxGeometry relative="1" as="geometry">
            <mxPoint x="-320.16857660924757" y="192.00000000000023" as="sourcePoint" />
            <mxPoint x="-220.00043000000002" y="260.0214400000002" as="targetPoint" />
            <Array as="points">
              <mxPoint x="-294" y="260" />
            </Array>
          </mxGeometry>
        </mxCell>
        <mxCell id="O0ug9R4ipBQisBpClcmb-31" value="" style="rounded=0;whiteSpace=wrap;html=1;rotation=-180;" parent="1" vertex="1">
          <mxGeometry x="-405.63" y="140.49" width="158.74" height="51.51" as="geometry" />
        </mxCell>
        <mxCell id="O0ug9R4ipBQisBpClcmb-32" value="HTTPListener&lt;br&gt;Port&amp;nbsp; 443" style="text;whiteSpace=wrap;html=1;" parent="1" vertex="1">
          <mxGeometry x="-393.45" y="146.25000000000003" width="130" height="40" as="geometry" />
        </mxCell>
        <mxCell id="O0ug9R4ipBQisBpClcmb-33" value="&lt;b&gt;Redirects to&lt;/b&gt;" style="text;whiteSpace=wrap;html=1;" parent="1" vertex="1">
          <mxGeometry x="-210" y="106" width="80" height="40" as="geometry" />
        </mxCell>
        <mxCell id="O0ug9R4ipBQisBpClcmb-34" value="" style="rounded=0;whiteSpace=wrap;html=1;rotation=-180;" parent="1" vertex="1">
          <mxGeometry x="-180" y="233.49" width="194.37" height="51.51" as="geometry" />
        </mxCell>
        <mxCell id="O0ug9R4ipBQisBpClcmb-35" value="&lt;b&gt;Backend Target Group&lt;br&gt;&lt;/b&gt;Healthcheck &quot;api/health-check" style="text;whiteSpace=wrap;html=1;" parent="1" vertex="1">
          <mxGeometry x="-180" y="239.24" width="180" height="40" as="geometry" />
        </mxCell>
        <mxCell id="O0ug9R4ipBQisBpClcmb-36" value="" style="rounded=0;whiteSpace=wrap;html=1;rotation=-180;" parent="1" vertex="1">
          <mxGeometry x="-180" y="298.5" width="198.74" height="51.51" as="geometry" />
        </mxCell>
        <mxCell id="O0ug9R4ipBQisBpClcmb-37" value="&lt;b&gt;Frontend Target Group&lt;/b&gt;&lt;br&gt;Healthcheck &quot;/&quot;" style="text;whiteSpace=wrap;html=1;" parent="1" vertex="1">
          <mxGeometry x="-167.82" y="304.25" width="167.82" height="40" as="geometry" />
        </mxCell>
        <mxCell id="O0ug9R4ipBQisBpClcmb-38" style="edgeStyle=none;rounded=0;orthogonalLoop=1;jettySize=auto;html=1;exitX=0.524;exitY=0.039;exitDx=0;exitDy=0;exitPerimeter=0;entryX=1;entryY=0.75;entryDx=0;entryDy=0;" parent="1" source="O0ug9R4ipBQisBpClcmb-31" target="O0ug9R4ipBQisBpClcmb-36" edge="1">
          <mxGeometry relative="1" as="geometry">
            <mxPoint x="-380" y="230" as="sourcePoint" />
            <mxPoint x="-220" y="310" as="targetPoint" />
            <Array as="points">
              <mxPoint x="-330" y="310" />
            </Array>
          </mxGeometry>
        </mxCell>
        <mxCell id="O0ug9R4ipBQisBpClcmb-39" value="&lt;b&gt;Default route&lt;/b&gt;" style="text;whiteSpace=wrap;html=1;" parent="1" vertex="1">
          <mxGeometry x="-331.26" y="270" width="80" height="40" as="geometry" />
        </mxCell>
        <mxCell id="O0ug9R4ipBQisBpClcmb-40" value="&lt;b&gt;Forword to&amp;nbsp;&lt;/b&gt;&lt;br&gt;&amp;nbsp;Host Header : api." style="text;whiteSpace=wrap;html=1;" parent="1" vertex="1">
          <mxGeometry x="-290" y="197.75" width="110" height="40" as="geometry" />
        </mxCell>
        <mxCell id="O0ug9R4ipBQisBpClcmb-41" value="" style="sketch=0;outlineConnect=0;fontColor=#232F3E;gradientColor=none;fillColor=#4D27AA;strokeColor=none;dashed=0;verticalLabelPosition=bottom;verticalAlign=top;align=center;html=1;fontSize=12;fontStyle=0;aspect=fixed;pointerEvents=1;shape=mxgraph.aws4.namespace;" parent="1" vertex="1">
          <mxGeometry x="790" y="600" width="40" height="40" as="geometry" />
        </mxCell>
        <mxCell id="O0ug9R4ipBQisBpClcmb-42" value="&lt;font style=&quot;font-size: 11px;&quot;&gt;Cloud map Namespace&lt;br&gt;&amp;nbsp; cruddur&lt;/font&gt;" style="text;whiteSpace=wrap;html=1;" parent="1" vertex="1">
          <mxGeometry x="840" y="590" width="120" height="62" as="geometry" />
        </mxCell>
        <mxCell id="O0ug9R4ipBQisBpClcmb-44" value="" style="points=[[0,0],[0.25,0],[0.5,0],[0.75,0],[1,0],[1,0.25],[1,0.5],[1,0.75],[1,1],[0.75,1],[0.5,1],[0.25,1],[0,1],[0,0.75],[0,0.5],[0,0.25]];outlineConnect=0;gradientColor=none;html=1;whiteSpace=wrap;fontSize=12;fontStyle=0;container=1;pointerEvents=0;collapsible=0;recursiveResize=0;shape=mxgraph.aws4.group;grIcon=mxgraph.aws4.group_security_group;grStroke=0;strokeColor=#248814;fillColor=#E9F3E6;verticalAlign=top;align=left;spacingLeft=30;fontColor=#248814;dashed=0;rounded=0;movable=1;resizable=1;rotatable=1;deletable=1;editable=1;locked=0;connectable=1;" parent="1" vertex="1">
          <mxGeometry x="280" y="240" width="480" height="50" as="geometry" />
        </mxCell>
        <mxCell id="O0ug9R4ipBQisBpClcmb-45" value="10.0.4.0/22" style="text;strokeColor=none;align=center;fillColor=none;html=1;verticalAlign=middle;whiteSpace=wrap;rounded=0;movable=1;resizable=1;rotatable=1;deletable=1;editable=1;locked=0;connectable=1;" parent="O0ug9R4ipBQisBpClcmb-44" vertex="1">
          <mxGeometry x="397" y="20" width="80" height="20" as="geometry" />
        </mxCell>
        <mxCell id="O0ug9R4ipBQisBpClcmb-46" value="&lt;font color=&quot;#248814&quot;&gt;SubnetPub2&lt;/font&gt;" style="text;strokeColor=none;align=center;fillColor=none;html=1;verticalAlign=middle;whiteSpace=wrap;rounded=0;movable=1;resizable=1;rotatable=1;deletable=1;editable=1;locked=0;connectable=1;" parent="O0ug9R4ipBQisBpClcmb-44" vertex="1">
          <mxGeometry x="390" width="80" height="20" as="geometry" />
        </mxCell>
        <mxCell id="O0ug9R4ipBQisBpClcmb-48" style="edgeStyle=orthogonalEdgeStyle;orthogonalLoop=1;jettySize=auto;html=1;elbow=vertical;startArrow=baseDash;startFill=0;endArrow=none;endFill=0;movable=1;resizable=1;rotatable=1;deletable=1;editable=1;locked=0;connectable=1;" parent="1" edge="1">
          <mxGeometry relative="1" as="geometry">
            <mxPoint x="850" y="340" as="targetPoint" />
            <mxPoint x="500" y="290" as="sourcePoint" />
            <Array as="points">
              <mxPoint x="500" y="340" />
            </Array>
          </mxGeometry>
        </mxCell>
        <mxCell id="O0ug9R4ipBQisBpClcmb-49" value="AZ1 us-east-1c" style="fillColor=none;strokeColor=#147EBA;dashed=1;verticalAlign=top;fontStyle=0;fontColor=#147EBA;whiteSpace=wrap;html=1;align=left;rounded=0;movable=1;resizable=1;rotatable=1;deletable=1;editable=1;locked=0;connectable=1;" parent="1" vertex="1">
          <mxGeometry x="260" y="350.01" width="540" height="109.99" as="geometry" />
        </mxCell>
        <mxCell id="O0ug9R4ipBQisBpClcmb-52" style="edgeStyle=orthogonalEdgeStyle;rounded=0;orthogonalLoop=1;jettySize=auto;html=1;exitX=0.5;exitY=1;exitDx=0;exitDy=0;movable=1;resizable=1;rotatable=1;deletable=1;editable=1;locked=0;connectable=1;" parent="1" source="O0ug9R4ipBQisBpClcmb-49" target="O0ug9R4ipBQisBpClcmb-49" edge="1">
          <mxGeometry relative="1" as="geometry" />
        </mxCell>
        <mxCell id="O0ug9R4ipBQisBpClcmb-53" value="" style="points=[[0,0],[0.25,0],[0.5,0],[0.75,0],[1,0],[1,0.25],[1,0.5],[1,0.75],[1,1],[0.75,1],[0.5,1],[0.25,1],[0,1],[0,0.75],[0,0.5],[0,0.25]];outlineConnect=0;gradientColor=none;html=1;whiteSpace=wrap;fontSize=12;fontStyle=0;container=1;pointerEvents=0;collapsible=0;recursiveResize=0;shape=mxgraph.aws4.group;grIcon=mxgraph.aws4.group_security_group;grStroke=0;strokeColor=#248814;fillColor=#E9F3E6;verticalAlign=top;align=left;spacingLeft=30;fontColor=#248814;dashed=0;rounded=0;movable=1;resizable=1;rotatable=1;deletable=1;editable=1;locked=0;connectable=1;" parent="1" vertex="1">
          <mxGeometry x="280" y="380" width="480" height="50" as="geometry" />
        </mxCell>
        <mxCell id="O0ug9R4ipBQisBpClcmb-54" value="&lt;font color=&quot;#248814&quot;&gt;SubnetPub3&lt;/font&gt;" style="text;strokeColor=none;align=center;fillColor=none;html=1;verticalAlign=middle;whiteSpace=wrap;rounded=0;movable=1;resizable=1;rotatable=1;deletable=1;editable=1;locked=0;connectable=1;" parent="O0ug9R4ipBQisBpClcmb-53" vertex="1">
          <mxGeometry x="390" width="80" height="20" as="geometry" />
        </mxCell>
        <mxCell id="O0ug9R4ipBQisBpClcmb-55" value="10.0.8.0/22" style="text;strokeColor=none;align=center;fillColor=none;html=1;verticalAlign=middle;whiteSpace=wrap;rounded=0;movable=1;resizable=1;rotatable=1;deletable=1;editable=1;locked=0;connectable=1;" parent="O0ug9R4ipBQisBpClcmb-53" vertex="1">
          <mxGeometry x="390" y="30" width="80" height="20" as="geometry" />
        </mxCell>
        <mxCell id="O0ug9R4ipBQisBpClcmb-57" value="Local(10.0.0.0/32)" style="text;strokeColor=none;align=center;fillColor=none;html=1;verticalAlign=middle;whiteSpace=wrap;rounded=0;" parent="1" vertex="1">
          <mxGeometry x="360" y="40" width="100" height="30" as="geometry" />
        </mxCell>
        <mxCell id="O0ug9R4ipBQisBpClcmb-58" style="rounded=0;orthogonalLoop=1;jettySize=auto;html=1;startArrow=classic;startFill=1;endArrow=none;endFill=0;" parent="1" source="O0ug9R4ipBQisBpClcmb-60" edge="1">
          <mxGeometry relative="1" as="geometry">
            <mxPoint x="670" y="-60" as="targetPoint" />
          </mxGeometry>
        </mxCell>
        <mxCell id="O0ug9R4ipBQisBpClcmb-59" style="edgeStyle=orthogonalEdgeStyle;orthogonalLoop=1;jettySize=auto;html=1;elbow=vertical;endArrow=baseDash;endFill=0;startArrow=classic;startFill=1;" parent="1" source="O0ug9R4ipBQisBpClcmb-60" target="O0ug9R4ipBQisBpClcmb-53" edge="1">
          <mxGeometry relative="1" as="geometry">
            <Array as="points">
              <mxPoint x="850" y="30" />
              <mxPoint x="850" y="490" />
              <mxPoint x="500" y="490" />
            </Array>
          </mxGeometry>
        </mxCell>
        <mxCell id="O0ug9R4ipBQisBpClcmb-60" value="" style="outlineConnect=0;fontColor=#232F3E;gradientColor=none;fillColor=#4D27AA;strokeColor=none;dashed=0;verticalLabelPosition=bottom;verticalAlign=top;align=center;html=1;fontSize=12;fontStyle=0;aspect=fixed;pointerEvents=1;shape=mxgraph.aws4.router;rounded=0;" parent="1" vertex="1">
          <mxGeometry x="646" width="44" height="44" as="geometry" />
        </mxCell>
        <mxCell id="O0ug9R4ipBQisBpClcmb-62" style="edgeStyle=orthogonalEdgeStyle;orthogonalLoop=1;jettySize=auto;html=1;elbow=vertical;startArrow=baseDash;startFill=0;endArrow=none;endFill=0;movable=1;resizable=1;rotatable=1;deletable=1;editable=1;locked=0;connectable=1;" parent="1" edge="1">
          <mxGeometry relative="1" as="geometry">
            <mxPoint x="850" y="200" as="targetPoint" />
            <mxPoint x="500" y="183" as="sourcePoint" />
            <Array as="points">
              <mxPoint x="500" y="207.95" />
            </Array>
          </mxGeometry>
        </mxCell>
        <mxCell id="O0ug9R4ipBQisBpClcmb-64" value="" style="points=[[0,0],[0.25,0],[0.5,0],[0.75,0],[1,0],[1,0.25],[1,0.5],[1,0.75],[1,1],[0.75,1],[0.5,1],[0.25,1],[0,1],[0,0.75],[0,0.5],[0,0.25]];outlineConnect=0;gradientColor=none;html=1;whiteSpace=wrap;fontSize=12;fontStyle=0;container=1;pointerEvents=0;collapsible=0;recursiveResize=0;shape=mxgraph.aws4.group;grIcon=mxgraph.aws4.group_security_group;grStroke=0;strokeColor=#248814;fillColor=#E9F3E6;verticalAlign=top;align=left;spacingLeft=30;fontColor=#248814;dashed=0;rounded=0;movable=1;resizable=1;rotatable=1;deletable=1;editable=1;locked=0;connectable=1;" parent="1" vertex="1">
          <mxGeometry x="280" y="60" width="477" height="120" as="geometry" />
        </mxCell>
        <mxCell id="O0ug9R4ipBQisBpClcmb-65" value="10.0.0.0/22" style="text;strokeColor=none;align=center;fillColor=none;html=1;verticalAlign=middle;whiteSpace=wrap;rounded=0;movable=1;resizable=1;rotatable=1;deletable=1;editable=1;locked=0;connectable=1;" parent="O0ug9R4ipBQisBpClcmb-64" vertex="1">
          <mxGeometry x="350" y="20" width="80" height="20" as="geometry" />
        </mxCell>
        <mxCell id="O0ug9R4ipBQisBpClcmb-66" value="&#xa;&lt;span style=&quot;color: rgb(36, 136, 20); font-family: Helvetica; font-size: 12px; font-style: normal; font-variant-ligatures: normal; font-variant-caps: normal; font-weight: 400; letter-spacing: normal; orphans: 2; text-align: left; text-indent: 0px; text-transform: none; widows: 2; word-spacing: 0px; -webkit-text-stroke-width: 0px; background-color: rgb(251, 251, 251); text-decoration-thickness: initial; text-decoration-style: initial; text-decoration-color: initial; float: none; display: inline !important;&quot;&gt;SubnetPub1&lt;/span&gt;&#xa;&#xa;" style="text;strokeColor=none;align=center;fillColor=none;html=1;verticalAlign=middle;whiteSpace=wrap;rounded=0;movable=1;resizable=1;rotatable=1;deletable=1;editable=1;locked=0;connectable=1;" parent="O0ug9R4ipBQisBpClcmb-64" vertex="1">
          <mxGeometry x="350" y="10" width="80" height="20" as="geometry" />
        </mxCell>
        <mxCell id="j9ZPjtee0tB4fhm8hNUY-1" value="" style="image;aspect=fixed;html=1;points=[];align=center;fontSize=12;image=img/lib/azure2/databases/Azure_Database_PostgreSQL_Server.svg;" parent="O0ug9R4ipBQisBpClcmb-64" vertex="1">
          <mxGeometry x="250.01" y="37.24" width="34.13" height="45.51" as="geometry" />
        </mxCell>
        <mxCell id="O0ug9R4ipBQisBpClcmb-95" value="cruddur&lt;br&gt;(postgres database)" style="text;strokeColor=none;align=center;fillColor=none;html=1;verticalAlign=middle;whiteSpace=wrap;rounded=0;" parent="O0ug9R4ipBQisBpClcmb-64" vertex="1">
          <mxGeometry x="212.06999999999988" y="82.75" width="110" height="30" as="geometry" />
        </mxCell>
        <mxCell id="j9ZPjtee0tB4fhm8hNUY-2" value="&lt;font color=&quot;#cc0000&quot;&gt;CruddurRDSSG&lt;/font&gt;" style="text;strokeColor=none;align=center;fillColor=none;html=1;verticalAlign=middle;whiteSpace=wrap;rounded=0;" parent="O0ug9R4ipBQisBpClcmb-64" vertex="1">
          <mxGeometry x="212.07" y="5" width="110" height="30" as="geometry" />
        </mxCell>
        <mxCell id="O0ug9R4ipBQisBpClcmb-70" value="Subnet Direction Association" style="text;strokeColor=none;align=center;fillColor=none;html=1;verticalAlign=middle;whiteSpace=wrap;rounded=0;" parent="1" vertex="1">
          <mxGeometry x="700" y="30" width="100" height="30" as="geometry" />
        </mxCell>
        <mxCell id="O0ug9R4ipBQisBpClcmb-71" value="" style="sketch=0;outlineConnect=0;fontColor=#232F3E;gradientColor=none;fillColor=#D45B07;strokeColor=none;dashed=0;verticalLabelPosition=bottom;verticalAlign=top;align=center;html=1;fontSize=12;fontStyle=0;aspect=fixed;pointerEvents=1;shape=mxgraph.aws4.ecs_task;" parent="1" vertex="1">
          <mxGeometry x="358.5" y="580" width="30.83" height="40" as="geometry" />
        </mxCell>
        <mxCell id="j9ZPjtee0tB4fhm8hNUY-36" style="edgeStyle=elbowEdgeStyle;rounded=0;orthogonalLoop=1;jettySize=auto;html=1;" parent="1" source="O0ug9R4ipBQisBpClcmb-73" target="O0ug9R4ipBQisBpClcmb-71" edge="1">
          <mxGeometry relative="1" as="geometry" />
        </mxCell>
        <mxCell id="O0ug9R4ipBQisBpClcmb-73" value="" style="sketch=0;outlineConnect=0;fontColor=#232F3E;gradientColor=none;fillColor=#D45B07;strokeColor=none;dashed=0;verticalLabelPosition=bottom;verticalAlign=top;align=center;html=1;fontSize=12;fontStyle=0;aspect=fixed;pointerEvents=1;shape=mxgraph.aws4.registry;" parent="1" vertex="1">
          <mxGeometry x="354.99999999999994" y="702" width="38" height="38" as="geometry" />
        </mxCell>
        <mxCell id="O0ug9R4ipBQisBpClcmb-74" value="backend-flask&lt;br&gt;(repo)" style="text;strokeColor=none;align=center;fillColor=none;html=1;verticalAlign=middle;whiteSpace=wrap;rounded=0;" parent="1" vertex="1">
          <mxGeometry x="325.59" y="740" width="91.5" height="30" as="geometry" />
        </mxCell>
        <mxCell id="O0ug9R4ipBQisBpClcmb-75" value="" style="rounded=0;whiteSpace=wrap;html=1;movable=1;resizable=1;rotatable=1;deletable=1;editable=1;locked=0;connectable=1;" parent="1" vertex="1">
          <mxGeometry x="352.34" y="80" width="120" height="440" as="geometry" />
        </mxCell>
        <mxCell id="O0ug9R4ipBQisBpClcmb-76" value="" style="sketch=0;points=[[0,0,0],[0.25,0,0],[0.5,0,0],[0.75,0,0],[1,0,0],[0,1,0],[0.25,1,0],[0.5,1,0],[0.75,1,0],[1,1,0],[0,0.25,0],[0,0.5,0],[0,0.75,0],[1,0.25,0],[1,0.5,0],[1,0.75,0]];outlineConnect=0;fontColor=#232F3E;gradientColor=#F78E04;gradientDirection=north;fillColor=#D05C17;strokeColor=#ffffff;dashed=0;verticalLabelPosition=bottom;verticalAlign=top;align=center;html=1;fontSize=12;fontStyle=0;aspect=fixed;shape=mxgraph.aws4.resourceIcon;resIcon=mxgraph.aws4.ecs;movable=1;resizable=1;rotatable=1;deletable=1;editable=1;locked=0;connectable=1;" parent="1" vertex="1">
          <mxGeometry x="352.64" y="79.75" width="24.72" height="24.72" as="geometry" />
        </mxCell>
        <mxCell id="O0ug9R4ipBQisBpClcmb-77" value="&lt;font color=&quot;#d36015&quot; style=&quot;font-size: 10px;&quot;&gt;Cluster (Fargate)&lt;/font&gt;" style="text;strokeColor=none;align=center;fillColor=none;html=1;verticalAlign=middle;whiteSpace=wrap;rounded=0;movable=1;resizable=1;rotatable=1;deletable=1;editable=1;locked=0;connectable=1;" parent="1" vertex="1">
          <mxGeometry x="380" y="86.2" width="80" height="27.12" as="geometry" />
        </mxCell>
        <mxCell id="O0ug9R4ipBQisBpClcmb-78" value="" style="rounded=0;whiteSpace=wrap;html=1;rotation=90;movable=1;resizable=1;rotatable=1;deletable=1;editable=1;locked=0;connectable=1;container=0;" parent="1" vertex="1">
          <mxGeometry x="264.7" y="224.48" width="295.27" height="89.08" as="geometry" />
        </mxCell>
        <mxCell id="O0ug9R4ipBQisBpClcmb-79" value="&lt;font style=&quot;font-size: 10px;&quot; color=&quot;#cc0000&quot;&gt;Service SG&lt;/font&gt;" style="text;strokeColor=none;align=center;fillColor=none;html=1;verticalAlign=middle;whiteSpace=wrap;rounded=0;movable=1;resizable=1;rotatable=1;deletable=1;editable=1;locked=0;connectable=1;" parent="1" vertex="1">
          <mxGeometry x="385" y="130" width="55" height="30" as="geometry" />
        </mxCell>
        <mxCell id="j9ZPjtee0tB4fhm8hNUY-28" style="edgeStyle=elbowEdgeStyle;rounded=0;orthogonalLoop=1;jettySize=auto;html=1;exitX=0.696;exitY=-0.111;exitDx=0;exitDy=0;exitPerimeter=0;startArrow=classic;startFill=1;endArrow=none;endFill=0;" parent="1" source="O0ug9R4ipBQisBpClcmb-81" edge="1">
          <mxGeometry relative="1" as="geometry">
            <mxPoint x="524" y="560" as="targetPoint" />
            <Array as="points">
              <mxPoint x="524" y="360" />
            </Array>
          </mxGeometry>
        </mxCell>
        <mxCell id="O0ug9R4ipBQisBpClcmb-80" value="" style="sketch=0;outlineConnect=0;fontColor=#232F3E;gradientColor=none;fillColor=#D45B07;strokeColor=none;dashed=0;verticalLabelPosition=bottom;verticalAlign=top;align=center;html=1;fontSize=12;fontStyle=0;aspect=fixed;pointerEvents=1;shape=mxgraph.aws4.container_1;movable=1;resizable=1;rotatable=1;deletable=1;editable=1;locked=0;connectable=1;" parent="1" vertex="1">
          <mxGeometry x="388" y="155.75" width="32.52" height="21" as="geometry" />
        </mxCell>
        <mxCell id="O0ug9R4ipBQisBpClcmb-81" value="&lt;font style=&quot;font-size: 10px;&quot;&gt;backend-flask&lt;br&gt;(Task)&lt;/font&gt;" style="text;strokeColor=none;align=center;fillColor=none;html=1;verticalAlign=middle;whiteSpace=wrap;rounded=0;movable=1;resizable=1;rotatable=1;deletable=1;editable=1;locked=0;connectable=1;" parent="1" vertex="1">
          <mxGeometry x="358.5" y="176.75" width="91.5" height="30" as="geometry" />
        </mxCell>
        <mxCell id="j9ZPjtee0tB4fhm8hNUY-23" style="edgeStyle=elbowEdgeStyle;rounded=0;orthogonalLoop=1;jettySize=auto;html=1;entryX=0;entryY=1;entryDx=0;entryDy=0;" parent="1" target="O0ug9R4ipBQisBpClcmb-79" edge="1">
          <mxGeometry relative="1" as="geometry">
            <mxPoint x="360.09617318181836" y="476.8" as="sourcePoint" />
            <mxPoint x="380" y="160" as="targetPoint" />
            <Array as="points">
              <mxPoint x="320" y="319.56" />
            </Array>
          </mxGeometry>
        </mxCell>
        <mxCell id="j9ZPjtee0tB4fhm8hNUY-24" style="edgeStyle=elbowEdgeStyle;rounded=0;orthogonalLoop=1;jettySize=auto;html=1;entryX=0;entryY=0.5;entryDx=0;entryDy=0;startArrow=classic;startFill=1;" parent="1" source="O0ug9R4ipBQisBpClcmb-82" target="O0ug9R4ipBQisBpClcmb-34" edge="1">
          <mxGeometry relative="1" as="geometry" />
        </mxCell>
        <mxCell id="j9ZPjtee0tB4fhm8hNUY-32" style="edgeStyle=elbowEdgeStyle;rounded=0;orthogonalLoop=1;jettySize=auto;html=1;endArrow=none;endFill=0;exitX=0;exitY=1;exitDx=0;exitDy=0;startArrow=classic;startFill=1;" parent="1" source="O0ug9R4ipBQisBpClcmb-83" edge="1">
          <mxGeometry relative="1" as="geometry">
            <mxPoint x="620" y="620" as="targetPoint" />
            <Array as="points">
              <mxPoint x="490" y="660" />
            </Array>
          </mxGeometry>
        </mxCell>
        <mxCell id="j9ZPjtee0tB4fhm8hNUY-34" style="edgeStyle=elbowEdgeStyle;rounded=0;orthogonalLoop=1;jettySize=auto;html=1;" parent="1" source="O0ug9R4ipBQisBpClcmb-82" target="O0ug9R4ipBQisBpClcmb-71" edge="1">
          <mxGeometry relative="1" as="geometry" />
        </mxCell>
        <mxCell id="O0ug9R4ipBQisBpClcmb-82" value="" style="sketch=0;outlineConnect=0;fontColor=#232F3E;gradientColor=none;fillColor=#D45B07;strokeColor=none;dashed=0;verticalLabelPosition=bottom;verticalAlign=top;align=center;html=1;fontSize=12;fontStyle=0;aspect=fixed;pointerEvents=1;shape=mxgraph.aws4.ecs_service;" parent="1" vertex="1">
          <mxGeometry x="360" y="470.01" width="28" height="34.46" as="geometry" />
        </mxCell>
        <mxCell id="O0ug9R4ipBQisBpClcmb-83" value="&lt;font style=&quot;font-size: 10px;&quot;&gt;Backend-flask&lt;br&gt;(fargate service)&lt;/font&gt;" style="text;strokeColor=none;align=center;fillColor=none;html=1;verticalAlign=middle;whiteSpace=wrap;rounded=0;" parent="1" vertex="1">
          <mxGeometry x="388" y="476.46999999999997" width="90" height="28" as="geometry" />
        </mxCell>
        <mxCell id="j9ZPjtee0tB4fhm8hNUY-27" style="edgeStyle=elbowEdgeStyle;rounded=0;orthogonalLoop=1;jettySize=auto;html=1;" parent="1" target="O0ug9R4ipBQisBpClcmb-80" edge="1">
          <mxGeometry relative="1" as="geometry">
            <mxPoint x="251.5" y="540" as="sourcePoint" />
            <mxPoint x="390" y="173" as="targetPoint" />
            <Array as="points">
              <mxPoint x="251.5" y="370" />
            </Array>
          </mxGeometry>
        </mxCell>
        <mxCell id="O0ug9R4ipBQisBpClcmb-84" value="" style="sketch=0;outlineConnect=0;fontColor=#232F3E;gradientColor=none;fillColor=#BF0816;strokeColor=none;dashed=0;verticalLabelPosition=bottom;verticalAlign=top;align=center;html=1;fontSize=12;fontStyle=0;aspect=fixed;pointerEvents=1;shape=mxgraph.aws4.role;" parent="1" vertex="1">
          <mxGeometry x="226.82" y="540" width="53.18" height="30" as="geometry" />
        </mxCell>
        <mxCell id="j9ZPjtee0tB4fhm8hNUY-35" style="edgeStyle=elbowEdgeStyle;rounded=0;orthogonalLoop=1;jettySize=auto;html=1;" parent="1" source="O0ug9R4ipBQisBpClcmb-85" target="O0ug9R4ipBQisBpClcmb-71" edge="1">
          <mxGeometry relative="1" as="geometry" />
        </mxCell>
        <mxCell id="O0ug9R4ipBQisBpClcmb-85" value="" style="sketch=0;outlineConnect=0;fontColor=#232F3E;gradientColor=none;fillColor=#BF0816;strokeColor=none;dashed=0;verticalLabelPosition=bottom;verticalAlign=top;align=center;html=1;fontSize=12;fontStyle=0;aspect=fixed;pointerEvents=1;shape=mxgraph.aws4.role;" parent="1" vertex="1">
          <mxGeometry x="226.82" y="580" width="53.18" height="30" as="geometry" />
        </mxCell>
        <mxCell id="O0ug9R4ipBQisBpClcmb-86" value="CruddurServiceTaskRole" style="text;strokeColor=none;align=center;fillColor=none;html=1;verticalAlign=middle;whiteSpace=wrap;rounded=0;" parent="1" vertex="1">
          <mxGeometry x="36.78" y="540" width="170" height="30" as="geometry" />
        </mxCell>
        <mxCell id="O0ug9R4ipBQisBpClcmb-87" value="CruddurServiceExecusionRole" style="text;strokeColor=none;align=center;fillColor=none;html=1;verticalAlign=middle;whiteSpace=wrap;rounded=0;" parent="1" vertex="1">
          <mxGeometry x="30" y="580" width="176.78" height="30" as="geometry" />
        </mxCell>
        <mxCell id="O0ug9R4ipBQisBpClcmb-89" value="" style="sketch=0;points=[[0,0,0],[0.25,0,0],[0.5,0,0],[0.75,0,0],[1,0,0],[0,1,0],[0.25,1,0],[0.5,1,0],[0.75,1,0],[1,1,0],[0,0.25,0],[0,0.5,0],[0,0.75,0],[1,0.25,0],[1,0.5,0],[1,0.75,0]];outlineConnect=0;fontColor=#232F3E;gradientColor=#4D72F3;gradientDirection=north;fillColor=#3334B9;strokeColor=#ffffff;dashed=0;verticalLabelPosition=bottom;verticalAlign=top;align=center;html=1;fontSize=12;fontStyle=0;aspect=fixed;shape=mxgraph.aws4.resourceIcon;resIcon=mxgraph.aws4.rds;" parent="1" vertex="1">
          <mxGeometry x="920" y="82" width="48" height="48" as="geometry" />
        </mxCell>
        <mxCell id="O0ug9R4ipBQisBpClcmb-90" value="cruddur-instance&lt;br&gt;(RDS Instance)" style="text;strokeColor=none;align=center;fillColor=none;html=1;verticalAlign=middle;whiteSpace=wrap;rounded=0;" parent="1" vertex="1">
          <mxGeometry x="889" y="132" width="110" height="30" as="geometry" />
        </mxCell>
        <mxCell id="j9ZPjtee0tB4fhm8hNUY-3" style="edgeStyle=orthogonalEdgeStyle;rounded=0;orthogonalLoop=1;jettySize=auto;html=1;entryX=0.99;entryY=0.307;entryDx=0;entryDy=0;entryPerimeter=0;" parent="1" source="O0ug9R4ipBQisBpClcmb-91" target="O0ug9R4ipBQisBpClcmb-75" edge="1">
          <mxGeometry relative="1" as="geometry" />
        </mxCell>
        <mxCell id="O0ug9R4ipBQisBpClcmb-91" value="&lt;b&gt;Ingress&lt;br&gt;&lt;/b&gt;(HTTP) TCP 5432 ServiceSG BACKEND&amp;nbsp;&lt;br&gt;&lt;br&gt;&lt;b style=&quot;--tw-border-spacing-x: 0; --tw-border-spacing-y: 0; --tw-translate-x: 0; --tw-translate-y: 0; --tw-rotate: 0; --tw-skew-x: 0; --tw-skew-y: 0; --tw-scale-x: 1; --tw-scale-y: 1; --tw-pan-x: ; --tw-pan-y: ; --tw-pinch-zoom: ; --tw-scroll-snap-strictness: proximity; --tw-ordinal: ; --tw-slashed-zero: ; --tw-numeric-figure: ; --tw-numeric-spacing: ; --tw-numeric-fraction: ; --tw-ring-inset: ; --tw-ring-offset-width: 0px; --tw-ring-offset-color: #fff; --tw-ring-color: rgb(59 130 246 / 0.5); --tw-ring-offset-shadow: 0 0 #0000; --tw-ring-shadow: 0 0 #0000; --tw-shadow: 0 0 #0000; --tw-shadow-colored: 0 0 #0000; --tw-blur: ; --tw-brightness: ; --tw-contrast: ; --tw-grayscale: ; --tw-hue-rotate: ; --tw-invert: ; --tw-saturate: ; --tw-sepia: ; --tw-drop-shadow: ; --tw-backdrop-blur: ; --tw-backdrop-brightness: ; --tw-backdrop-contrast: ; --tw-backdrop-grayscale: ; --tw-backdrop-hue-rotate: ; --tw-backdrop-invert: ; --tw-backdrop-opacity: ; --tw-backdrop-saturate: ; --tw-backdrop-sepia: ; border-color: var(--border-color);&quot;&gt;Outgress&lt;/b&gt;&lt;br style=&quot;--tw-border-spacing-x: 0; --tw-border-spacing-y: 0; --tw-translate-x: 0; --tw-translate-y: 0; --tw-rotate: 0; --tw-skew-x: 0; --tw-skew-y: 0; --tw-scale-x: 1; --tw-scale-y: 1; --tw-pan-x: ; --tw-pan-y: ; --tw-pinch-zoom: ; --tw-scroll-snap-strictness: proximity; --tw-ordinal: ; --tw-slashed-zero: ; --tw-numeric-figure: ; --tw-numeric-spacing: ; --tw-numeric-fraction: ; --tw-ring-inset: ; --tw-ring-offset-width: 0px; --tw-ring-offset-color: #fff; --tw-ring-color: rgb(59 130 246 / 0.5); --tw-ring-offset-shadow: 0 0 #0000; --tw-ring-shadow: 0 0 #0000; --tw-shadow: 0 0 #0000; --tw-shadow-colored: 0 0 #0000; --tw-blur: ; --tw-brightness: ; --tw-contrast: ; --tw-grayscale: ; --tw-hue-rotate: ; --tw-invert: ; --tw-saturate: ; --tw-sepia: ; --tw-drop-shadow: ; --tw-backdrop-blur: ; --tw-backdrop-brightness: ; --tw-backdrop-contrast: ; --tw-backdrop-grayscale: ; --tw-backdrop-hue-rotate: ; --tw-backdrop-invert: ; --tw-backdrop-opacity: ; --tw-backdrop-saturate: ; --tw-backdrop-sepia: ; border-color: var(--border-color);&quot;&gt;(HTTPS) TCP ALL&amp;nbsp; 0.0.0.0/0" style="text;strokeColor=none;align=left;fillColor=none;html=1;verticalAlign=middle;whiteSpace=wrap;rounded=0;" parent="1" vertex="1">
          <mxGeometry x="1020" y="140.49" width="230" height="78" as="geometry" />
        </mxCell>
        <mxCell id="j9ZPjtee0tB4fhm8hNUY-13" style="edgeStyle=elbowEdgeStyle;rounded=0;orthogonalLoop=1;jettySize=auto;html=1;endArrow=none;endFill=0;" parent="1" edge="1">
          <mxGeometry relative="1" as="geometry">
            <mxPoint x="-630" y="540" as="targetPoint" />
            <mxPoint x="1020" y="285.0050000000001" as="sourcePoint" />
          </mxGeometry>
        </mxCell>
        <mxCell id="O0ug9R4ipBQisBpClcmb-92" value="&lt;b&gt;Ingress&lt;/b&gt;&lt;br&gt;(HTTP) TCP 4567 ALBSG ALB HEALTH&lt;br&gt;&lt;br&gt;&lt;b&gt;Outgress&lt;br&gt;&lt;/b&gt;(HTTPS) TCP ALL 0.0.0.0/0" style="text;whiteSpace=wrap;html=1;" parent="1" vertex="1">
          <mxGeometry x="1020" y="252.13" width="230" height="85.75" as="geometry" />
        </mxCell>
        <mxCell id="j9ZPjtee0tB4fhm8hNUY-30" style="edgeStyle=elbowEdgeStyle;rounded=0;orthogonalLoop=1;jettySize=auto;html=1;startArrow=classic;startFill=1;" parent="1" source="O0ug9R4ipBQisBpClcmb-93" edge="1">
          <mxGeometry relative="1" as="geometry">
            <mxPoint x="660" y="620" as="targetPoint" />
          </mxGeometry>
        </mxCell>
        <mxCell id="O0ug9R4ipBQisBpClcmb-93" value="" style="sketch=0;outlineConnect=0;fontColor=#232F3E;gradientColor=none;fillColor=#4D27AA;strokeColor=none;dashed=0;verticalLabelPosition=bottom;verticalAlign=top;align=center;html=1;fontSize=12;fontStyle=0;aspect=fixed;pointerEvents=1;shape=mxgraph.aws4.resource;" parent="1" vertex="1">
          <mxGeometry x="500" y="670" width="48.72" height="50" as="geometry" />
        </mxCell>
        <mxCell id="j9ZPjtee0tB4fhm8hNUY-31" style="edgeStyle=elbowEdgeStyle;rounded=0;orthogonalLoop=1;jettySize=auto;html=1;startArrow=classic;startFill=1;" parent="1" source="O0ug9R4ipBQisBpClcmb-94" target="O0ug9R4ipBQisBpClcmb-41" edge="1">
          <mxGeometry relative="1" as="geometry" />
        </mxCell>
        <mxCell id="O0ug9R4ipBQisBpClcmb-94" value="" style="sketch=0;outlineConnect=0;fontColor=#232F3E;gradientColor=none;fillColor=#4D27AA;strokeColor=none;dashed=0;verticalLabelPosition=bottom;verticalAlign=top;align=center;html=1;fontSize=12;fontStyle=0;aspect=fixed;pointerEvents=1;shape=mxgraph.aws4.service;" parent="1" vertex="1">
          <mxGeometry x="662.79" y="600" width="47.21" height="46" as="geometry" />
        </mxCell>
        <mxCell id="O0ug9R4ipBQisBpClcmb-96" style="edgeStyle=elbowEdgeStyle;rounded=0;orthogonalLoop=1;jettySize=auto;html=1;entryX=0;entryY=0.75;entryDx=0;entryDy=0;entryPerimeter=0;startArrow=classic;startFill=1;" parent="1" target="O0ug9R4ipBQisBpClcmb-89" edge="1">
          <mxGeometry relative="1" as="geometry">
            <Array as="points">
              <mxPoint x="800" y="130" />
            </Array>
            <mxPoint x="580.1600000000003" y="130" as="sourcePoint" />
          </mxGeometry>
        </mxCell>
        <mxCell id="j9ZPjtee0tB4fhm8hNUY-29" style="edgeStyle=elbowEdgeStyle;rounded=0;orthogonalLoop=1;jettySize=auto;html=1;" parent="1" source="j9ZPjtee0tB4fhm8hNUY-17" target="O0ug9R4ipBQisBpClcmb-93" edge="1">
          <mxGeometry relative="1" as="geometry">
            <Array as="points">
              <mxPoint x="524" y="630" />
            </Array>
          </mxGeometry>
        </mxCell>
        <mxCell id="j9ZPjtee0tB4fhm8hNUY-17" value="&lt;b&gt;eg, 10.0.0.64&lt;br&gt;&lt;/b&gt;Port 4567" style="text;strokeColor=none;align=center;fillColor=none;html=1;verticalAlign=middle;whiteSpace=wrap;rounded=0;" parent="1" vertex="1">
          <mxGeometry x="478" y="552.5" width="91.5" height="45" as="geometry" />
        </mxCell>
        <mxCell id="j9ZPjtee0tB4fhm8hNUY-18" value="Bcakend-flask&lt;br&gt;(cloud map service)" style="text;strokeColor=none;align=center;fillColor=none;html=1;verticalAlign=middle;whiteSpace=wrap;rounded=0;" parent="1" vertex="1">
          <mxGeometry x="630" y="560" width="111.5" height="30" as="geometry" />
        </mxCell>
        <mxCell id="O0ug9R4ipBQisBpClcmb-72" value="Task Definations&lt;br&gt;(Backend)" style="text;strokeColor=none;align=center;fillColor=none;html=1;verticalAlign=middle;whiteSpace=wrap;rounded=0;" parent="1" vertex="1">
          <mxGeometry x="390.34" y="585" width="91.5" height="30" as="geometry" />
        </mxCell>
        <mxCell id="j9ZPjtee0tB4fhm8hNUY-37" value="Cloud map resources" style="text;strokeColor=none;align=center;fillColor=none;html=1;verticalAlign=middle;whiteSpace=wrap;rounded=0;" parent="1" vertex="1">
          <mxGeometry x="490" y="720" width="91.5" height="30" as="geometry" />
        </mxCell>
        <mxCell id="j9ZPjtee0tB4fhm8hNUY-40" style="edgeStyle=elbowEdgeStyle;rounded=0;orthogonalLoop=1;jettySize=auto;html=1;" parent="1" source="j9ZPjtee0tB4fhm8hNUY-38" edge="1">
          <mxGeometry relative="1" as="geometry">
            <mxPoint x="371.90999999999985" y="780" as="targetPoint" />
          </mxGeometry>
        </mxCell>
        <mxCell id="j9ZPjtee0tB4fhm8hNUY-38" value="" style="sketch=0;outlineConnect=0;fontColor=#232F3E;gradientColor=none;fillColor=#D45B07;strokeColor=none;dashed=0;verticalLabelPosition=bottom;verticalAlign=top;align=center;html=1;fontSize=12;fontStyle=0;aspect=fixed;pointerEvents=1;shape=mxgraph.aws4.registry;" parent="1" vertex="1">
          <mxGeometry x="352.90999999999997" y="870" width="38" height="38" as="geometry" />
        </mxCell>
        <mxCell id="j9ZPjtee0tB4fhm8hNUY-39" value="cruddur-python: 3-10-slim-buster&lt;br&gt;(ECR Repo)" style="text;strokeColor=none;align=center;fillColor=none;html=1;verticalAlign=middle;whiteSpace=wrap;rounded=0;" parent="1" vertex="1">
          <mxGeometry x="280.75" y="908" width="186.5" height="30" as="geometry" />
        </mxCell>
      </root>
    </mxGraphModel>
  </diagram>
</mxfile>
